<?xml version="1.0" standalone="no"?>
<!DOCTYPE svg PUBLIC "-//W3C//DTD SVG 20010904//EN"
 "http://www.w3.org/TR/2001/REC-SVG-20010904/DTD/svg10.dtd">
<svg version="1.0" xmlns="http://www.w3.org/2000/svg"
 width="286.000000pt" height="364.000000pt" viewBox="0 0 286.000000 364.000000"
 preserveAspectRatio="xMidYMid meet">
<metadata>
Created by potrace 1.16, written by Peter Selinger 2001-2019
</metadata>
<g transform="translate(0.000000,364.000000) scale(0.100000,-0.100000)"
fill="#000000" stroke="none">
<path d="M1210 3144 c-200 -34 -277 -68 -314 -139 -18 -35 -21 -61 -24 -197
l-3 -158 265 0 266 0 0 -30 0 -30 -388 0 c-325 0 -397 -3 -442 -16 -142 -42
-211 -130 -249 -321 -48 -235 -8 -519 91 -644 63 -80 113 -99 270 -99 l126 0
4 163 c3 148 5 166 27 212 29 58 93 125 147 154 50 26 39 27 -20 1 -26 -11
-62 -20 -82 -22 -73 -5 -94 73 -40 151 70 100 179 135 451 145 77 3 149 7 160
10 11 3 47 12 80 21 155 44 185 43 228 -5 60 -67 14 -177 -90 -214 -45 -16
-119 -22 -383 -32 -91 -3 -167 -8 -170 -11 -2 -2 139 -3 315 -1 307 3 322 4
361 25 44 24 93 74 121 126 16 28 18 68 21 346 3 341 0 365 -53 435 -15 19
-48 48 -73 65 -81 52 -144 63 -372 66 -113 2 -216 2 -230 -1z m404 -19 c145
-25 218 -77 246 -175 15 -53 2 -89 -39 -106 -32 -14 -58 -15 -226 -4 -104 6
-207 15 -228 20 -39 8 -84 36 -148 91 -74 62 -147 67 -210 15 -40 -34 -54 -29
-53 18 2 72 73 113 249 145 83 15 314 12 409 -4z m-451 -155 c34 -27 51 -79
38 -113 -6 -15 -8 -33 -5 -40 2 -7 -7 -24 -22 -37 -19 -19 -37 -25 -70 -25
-69 0 -95 36 -97 139 -2 77 95 124 156 76z m-134 -225 c53 -27 102 -28 179 -5
64 20 78 21 117 10 24 -7 52 -21 62 -32 17 -19 17 -20 -2 -34 -17 -13 -177
-19 -403 -16 -67 1 -87 26 -56 70 18 26 61 29 103 7z m401 -194 c35 -10 41
-57 8 -70 -35 -14 -437 -78 -563 -89 -60 -5 -130 -17 -155 -27 -63 -23 -139
-37 -166 -31 -32 8 -57 59 -49 99 13 62 53 102 118 117 40 10 773 11 807 1z
m-776 -781 c51 -24 87 -76 93 -133 5 -40 2 -46 -28 -71 -32 -27 -37 -28 -106
-23 -101 8 -142 41 -158 130 -6 32 16 79 47 101 31 22 104 20 152 -4z"/>
</g>
</svg>
